<svg xmlns="http://www.w3.org/2000/svg" width="112" height="160" viewBox="0 0 112 160">
  <g stroke="#263034" stroke-width="7" stroke-linejoin="round" stroke-linecap="round">
    <path fill="#f4c64f" d="M56 10c-25 0-43 19-43 43 0 17 8 28 18 38 7 7 9 13 9 22h32c0-9 2-15 9-22 10-10 18-21 18-38 0-24-18-43-43-43z"/>
    <path fill="none" stroke="#fff1a8" stroke-width="6" d="M34 49c3-12 11-19 22-20"/>
    <path fill="none" stroke="#fff1a8" stroke-width="5" d="M42 75l9 12 9-12 9 12"/>
    <rect x="37" y="111" width="38" height="29" rx="3" fill="#8a7761"/>
    <path fill="none" stroke="#263034" stroke-width="5" d="M41 120h30M41 130h30"/>
    <rect x="44" y="139" width="24" height="11" rx="3" fill="#504944"/>
  </g>
</svg>
