<svg xmlns="http://www.w3.org/2000/svg" width="3200" height="1120" viewBox="0 0 3200 1120">
  <defs>
    <linearGradient id="sky" x1="0" y1="0" x2="0" y2="1">
      <stop offset="0" stop-color="#5d8fa8"/>
      <stop offset="0.58" stop-color="#d88966"/>
      <stop offset="1" stop-color="#ecaa59"/>
    </linearGradient>
    <pattern id="tiles" width="46" height="26" patternUnits="userSpaceOnUse">
      <rect width="46" height="26" fill="#994634"/>
      <path d="M0 5h46M0 18h46M12 5v13M35 5v13M0 18v8M23 18v8M46 18v8" stroke="#642f2b" stroke-width="3"/>
    </pattern>
    <pattern id="brick" width="72" height="36" patternUnits="userSpaceOnUse">
      <rect width="72" height="36" fill="#777875"/>
      <path d="M0 18h72M36 0v18M18 18v18M54 18v18" stroke="#656662" stroke-width="3"/>
    </pattern>
  </defs>
  <rect width="3200" height="1120" fill="url(#sky)"/>
  <circle cx="450" cy="150" r="84" fill="#fff2b0" opacity="0.64"/>
  <path d="M0 620 350 490 700 620 1030 470 1380 620 1720 490 2050 620 2420 455 2770 610 3200 465v515H0Z" fill="#875a61" opacity="0.28"/>
  <g opacity="0.5" fill="#48646d">
    <rect x="0" y="640" width="480" height="340"/><rect x="520" y="560" width="330" height="420"/>
    <rect x="900" y="660" width="400" height="320"/><rect x="1370" y="590" width="380" height="390"/>
    <rect x="1810" y="650" width="290" height="330"/><rect x="2160" y="560" width="470" height="420"/>
    <rect x="2690" y="635" width="510" height="345"/>
  </g>

  <g id="left-neighbor">
    <rect x="0" y="610" width="680" height="370" fill="#9e5b3e"/>
    <path d="M0 610 310 405 705 610l-28 48-367-187L0 670Z" fill="url(#tiles)"/>
    <rect x="70" y="695" width="185" height="285" fill="#4b302b"/>
    <rect x="310" y="690" width="290" height="150" fill="#6e9390" stroke="#293d40" stroke-width="14"/>
    <path d="M455 690v150M310 765h290" stroke="#d3d9cb" stroke-width="8"/>
    <rect x="300" y="870" width="310" height="72" fill="#e5d4ab"/>
    <text x="455" y="916" text-anchor="middle" font-family="sans-serif" font-size="31" font-weight="800" fill="#6f3027">SERVIS RADIO</text>
    <path d="M100 620v-170h18v170M420 590V390h18v200" stroke="#333136" stroke-width="12"/>
    <path d="M108 470h220M430 410h180" stroke="#333136" stroke-width="10"/>
  </g>

  <g id="electric-shop">
    <rect x="720" y="420" width="1600" height="560" fill="#2f6e70"/>
    <rect x="760" y="382" width="1520" height="86" fill="#e6b84a"/>
    <path d="M700 382h1640l-88-92H790Z" fill="url(#tiles)"/>
    <rect x="900" y="505" width="1240" height="126" rx="8" fill="#e3c260"/>
    <path d="M970 615h1100" stroke="#bc7e36" stroke-width="15"/>
    <text x="1520" y="590" text-anchor="middle" font-family="sans-serif" font-size="64" font-weight="900" fill="#173d3f">TOKO LISTRIK</text>
    <text x="1520" y="620" text-anchor="middle" font-family="sans-serif" font-size="19" font-weight="700" fill="#49615a">BLUT LISTRIK - KABEL - SAKLAR - LAMPU</text>
    <rect x="820" y="675" width="485" height="275" fill="#78a6a0" stroke="#1f3b3e" stroke-width="16"/>
    <path d="M1062 675v275M820 812h485" stroke="#d2d8c9" stroke-width="9"/>
    <rect x="1735" y="675" width="485" height="275" fill="#78a6a0" stroke="#1f3b3e" stroke-width="16"/>
    <path d="M1977 675v275M1735 812h485" stroke="#d2d8c9" stroke-width="9"/>
    <rect x="1345" y="655" width="350" height="325" fill="#163b3e"/>
    <rect x="1392" y="700" width="256" height="170" fill="#d9b45d" opacity="0.65"/>
    <circle cx="1615" cy="900" r="13" fill="#eac357"/>
    <g fill="#e7d58d" stroke="#76532e" stroke-width="7">
      <circle cx="915" cy="760" r="42"/><circle cx="1040" cy="760" r="42"/><circle cx="1165" cy="760" r="42"/>
      <circle cx="1850" cy="760" r="42"/><circle cx="1975" cy="760" r="42"/><circle cx="2100" cy="760" r="42"/>
    </g>
    <g fill="none" stroke="#76532e" stroke-width="12">
      <circle cx="915" cy="760" r="20"/><circle cx="1040" cy="760" r="20"/><circle cx="1165" cy="760" r="20"/>
      <circle cx="1850" cy="760" r="20"/><circle cx="1975" cy="760" r="20"/><circle cx="2100" cy="760" r="20"/>
    </g>
    <rect x="1775" y="870" width="245" height="100" fill="#99623c"/>
    <path d="M1805 910c40-45 120-45 170 0-45 35-120 35-170 0Z" fill="none" stroke="#dfc36d" stroke-width="13"/>
    <text x="1897" y="957" text-anchor="middle" font-family="sans-serif" font-size="19" font-weight="700" fill="#f1dfae">KABEL FESTIVAL</text>
    <g id="awning">
      <path d="M780 642h1480v75H780Z" fill="#f0e1bc"/>
      <path d="M780 642h185v75H780ZM1150 642h185v75h-185ZM1520 642h185v75h-185ZM1890 642h185v75h-185Z" fill="#b44738"/>
      <path d="M780 717c40 40 145 40 185 0 40 40 145 40 185 0 40 40 145 40 185 0 40 40 145 40 185 0 40 40 145 40 185 0 40 40 145 40 185 0 40 40 145 40 185 0 40 40 145 40 185 0" fill="#e6d3ab"/>
    </g>
  </g>

  <g id="right-neighbor">
    <rect x="2360" y="535" width="840" height="445" fill="#b7a577"/>
    <path d="m2320 550 460-250 470 250-28 48-442-228-430 230Z" fill="#31454b"/>
    <rect x="2460" y="660" width="180" height="220" fill="#466a70" stroke="#293b3f" stroke-width="15"/>
    <path d="M2550 660v220M2460 770h180" stroke="#d2d8cc" stroke-width="8"/>
    <rect x="2710" y="680" width="390" height="300" fill="#504038"/>
    <path d="M2740 730h330M2740 790h330M2740 850h330" stroke="#b79b5a" stroke-width="18"/>
    <rect x="2440" y="900" width="240" height="62" fill="#ead6a9"/>
    <text x="2560" y="941" text-anchor="middle" font-family="sans-serif" font-size="27" font-weight="800" fill="#765a32">TOKO KASET</text>
    <path d="M2500 555v-205h20v205M3020 535V315h20v220" stroke="#302f34" stroke-width="12"/>
    <path d="M2510 380h290M3030 345h170" stroke="#302f34" stroke-width="9"/>
  </g>

  <rect y="980" width="3200" height="140" fill="#29282c"/>
  <rect y="960" width="3200" height="30" fill="#b8b3a7"/>
  <rect y="920" width="3200" height="42" fill="url(#brick)"/>
  <path d="M0 1065h3200" stroke="#d7b655" stroke-width="9" stroke-dasharray="90 76" opacity="0.62"/>

  <g id="streetlights">
    <g transform="translate(650 980)">
      <rect x="-8" y="-370" width="16" height="370" fill="#25262a"/><path d="M0-365h105" stroke="#25262a" stroke-width="16"/>
      <path d="M82-382h72l-15 48H97Z" fill="#f0bf50"/><circle cx="118" cy="-356" r="70" fill="#efbd4e" opacity="0.13"/>
    </g>
    <g transform="translate(2450 980)">
      <rect x="-8" y="-370" width="16" height="370" fill="#25262a"/><path d="M0-365h105" stroke="#25262a" stroke-width="16"/>
      <path d="M82-382h72l-15 48H97Z" fill="#f0bf50"/><circle cx="118" cy="-356" r="70" fill="#efbd4e" opacity="0.13"/>
    </g>
  </g>
  <g fill="none" stroke="#25252a" stroke-width="9" stroke-linecap="round">
    <path d="M0 330c530 50 830 5 1210 55 450 58 820-40 1190 12 330 46 560 12 800 20"/>
    <path d="M0 392c480 42 820 18 1200 62 450 53 815-25 1200 27 320 43 555 10 800 16"/>
  </g>
</svg>
