<svg xmlns="http://www.w3.org/2000/svg" width="2304" height="192" viewBox="0 0 2304 192">
  <defs>
    <g id="shadow">
      <ellipse cx="194" cy="169" rx="164" ry="11" fill="#242126" opacity="0.22"/>
    </g>

    <g id="car-body">
      <path d="M26 113c3-15 14-24 32-25l27-2c7-24 18-44 39-57 24-15 99-17 129-4 22 10 34 32 43 59l42 3c14 1 22 10 25 24l6 22c4 14-7 23-23 23H39c-16 0-25-10-20-25Z" fill="#2f9b91" stroke="#24282b" stroke-width="6" stroke-linejoin="round"/>
      <path d="M99 82c7-21 17-37 34-47 14-8 31-11 51-11v58Zm102-58c20 0 37 3 50 12 15 11 25 26 31 46h-81Z" fill="#b9d4ce" stroke="#263033" stroke-width="5" stroke-linejoin="round"/>
      <path d="M118 78c6-16 14-27 25-34 9-5 20-8 32-9v43Z" fill="#dce8d9" opacity="0.42"/>
      <path d="M211 34c14 1 25 4 34 10 10 7 17 17 22 31" fill="none" stroke="#dce8d9" stroke-width="8" stroke-linecap="round" opacity="0.38"/>

      <g id="driver">
        <path d="M218 82c2-16 12-28 28-30 17-2 31 8 36 30Z" fill="#39343e"/>
        <path d="m224 58 4-19 15 13Zm38-6 15-14-1 21Z" fill="#39343e" stroke="#39343e" stroke-width="3" stroke-linejoin="round"/>
        <ellipse cx="251" cy="61" rx="24" ry="22" fill="#39343e"/>
        <path d="M235 58q6-7 13 0-7 7-13 0Zm20 0q6-7 13 0-7 7-13 0Z" fill="#e98b8f"/>
        <path d="m247 69 4 3 4-3M244 76c5 4 10 4 15 0" fill="none" stroke="#c5d5cf" stroke-width="2" stroke-linecap="round"/>
        <path d="M229 80c11-8 32-8 44 0" fill="none" stroke="#d76868" stroke-width="4"/>
      </g>

      <path d="M193 25v126M91 88v60M291 88v62" fill="none" stroke="#276f6a" stroke-width="4" opacity="0.9"/>
      <path d="M113 107h19M216 107h19" fill="none" stroke="#20272a" stroke-width="5" stroke-linecap="round"/>
      <path d="M44 129h297" fill="none" stroke="#5ec0ae" stroke-width="5" opacity="0.75"/>
      <path d="M42 145h302" fill="none" stroke="#20272a" stroke-width="5" opacity="0.9"/>
      <path d="M342 107h16l6 18h-24Z" fill="#f2c65d" stroke="#24282b" stroke-width="4" stroke-linejoin="round"/>
      <path d="M25 112h13v19H20Z" fill="#d96b5f" stroke="#24282b" stroke-width="4" stroke-linejoin="round"/>
      <path d="M348 144h25v10h-30ZM12 143h24v11H8Z" fill="#6f7a78" stroke="#24282b" stroke-width="4" stroke-linejoin="round"/>
      <path d="M284 83c10-1 17 5 17 12 0 8-8 12-18 10l-8-2V89Z" fill="#25292c"/>
    </g>

    <g id="wheels">
      <circle cx="83" cy="150" r="31" fill="#222529" stroke="#151719" stroke-width="5"/>
      <circle cx="83" cy="150" r="18" fill="#596769"/>
      <circle cx="83" cy="150" r="7" fill="#a8b4ad"/>
      <circle cx="302" cy="150" r="31" fill="#222529" stroke="#151719" stroke-width="5"/>
      <circle cx="302" cy="150" r="18" fill="#596769"/>
      <circle cx="302" cy="150" r="7" fill="#a8b4ad"/>
    </g>
  </defs>

  <g id="frame-01">
    <use href="#shadow"/>
    <use href="#car-body"/>
    <use href="#wheels"/>
  </g>
  <g id="frame-02" transform="translate(384 0)">
    <use href="#shadow"/>
    <g transform="translate(0 2) rotate(0.2 192 112)"><use href="#car-body"/></g>
    <use href="#wheels"/>
  </g>
  <g id="frame-03" transform="translate(768 0)">
    <use href="#shadow"/>
    <g transform="rotate(-0.15 192 112)"><use href="#car-body"/></g>
    <use href="#wheels"/>
  </g>
  <g id="frame-04" transform="translate(1152 0)">
    <use href="#shadow"/>
    <g transform="translate(0 -2) rotate(-0.25 192 112)"><use href="#car-body"/></g>
    <use href="#wheels"/>
  </g>
  <g id="frame-05" transform="translate(1536 0)">
    <use href="#shadow"/>
    <g transform="translate(0 -4)"><use href="#car-body"/></g>
    <use href="#wheels"/>
  </g>
  <g id="frame-06" transform="translate(1920 0)">
    <use href="#shadow"/>
    <g transform="translate(0 -2) rotate(0.2 192 112)"><use href="#car-body"/></g>
    <use href="#wheels"/>
  </g>
</svg>
